<svg width="18" height="18" viewBox="0 0 18 18" fill="none" xmlns="http://www.w3.org/2000/svg">
<path d="M9.00006 10.8666L2.46673 17.3999C2.22229 17.6444 1.91118 17.7666 1.5334 17.7666C1.15562 17.7666 0.844509 17.6444 0.600065 17.3999C0.35562 17.1555 0.233398 16.8444 0.233398 16.4666C0.233398 16.0888 0.35562 15.7777 0.600065 15.5333L7.1334 8.99994L0.600065 2.46661C0.35562 2.22216 0.233398 1.91105 0.233398 1.53328C0.233398 1.1555 0.35562 0.844387 0.600065 0.599943C0.844509 0.355498 1.15562 0.233276 1.5334 0.233276C1.91118 0.233276 2.22229 0.355498 2.46673 0.599943L9.00006 7.13328L15.5334 0.599943C15.7778 0.355498 16.089 0.233276 16.4667 0.233276C16.8445 0.233276 17.1556 0.355498 17.4001 0.599943C17.6445 0.844387 17.7667 1.1555 17.7667 1.53328C17.7667 1.91105 17.6445 2.22216 17.4001 2.46661L10.8667 8.99994L17.4001 15.5333C17.6445 15.7777 17.7667 16.0888 17.7667 16.4666C17.7667 16.8444 17.6445 17.1555 17.4001 17.3999C17.1556 17.6444 16.8445 17.7666 16.4667 17.7666C16.089 17.7666 15.7778 17.6444 15.5334 17.3999L9.00006 10.8666Z" fill="black"/>
</svg>
