<svg xmlns="http://www.w3.org/2000/svg" width="28" height="28" viewBox="0 0 28 28" fill="none">
  <path fill-rule="evenodd" clip-rule="evenodd" d="M4.04799 5.28547C3.70628 4.94376 3.70628 4.38974 4.04799 4.04803C4.3897 3.70632 4.94372 3.70632 5.28543 4.04803L23.9521 22.7147C24.2938 23.0564 24.2938 23.6104 23.9521 23.9521C23.6104 24.2938 23.0564 24.2938 22.7147 23.9521L19.4168 20.6542C17.7726 21.5494 15.9368 22.1667 14 22.1667C9.54861 22.1667 5.62978 18.9055 3.34803 16.5048C1.99515 15.0814 1.99516 12.9188 3.34803 11.4954C4.31616 10.4768 5.57899 9.30325 7.05217 8.28965L4.04799 5.28547ZM10.9846 12.2221C10.6767 12.7432 10.5 13.351 10.5 14.0001C10.5 15.9331 12.067 17.5001 14 17.5001C14.6491 17.5001 15.2569 17.3234 15.778 17.0155L10.9846 12.2221ZM14 5.83341C18.4515 5.83341 22.3703 9.09464 24.6521 11.4954C26.0049 12.9188 26.0049 15.0814 24.6521 16.5048C24.1386 17.045 23.5424 17.6287 22.8758 18.2091L10.9815 6.31483C11.9492 6.0114 12.9601 5.83341 14 5.83341Z" fill="#000000"/>
</svg>