<svg width="118" height="58" viewBox="0 0 118 58" fill="none" xmlns="http://www.w3.org/2000/svg">
<path d="M32.487 47.072C32.9746 44.3012 35.5427 38.2319 38.2435 35.4171C40.9484 32.5982 42.9605 24.5314 37.8008 17.6491C31.602 9.38074 15.6823 12.8112 14.3341 22.6628C14.0211 24.9498 13.0766 29.3654 16.9021 35.4171C20.7276 41.4689 20.9756 45.0929 20.9756 46.5882C22.3925 47.8197 22.5695 49.3853 22.5695 53.8889H25.4033L27.3514 56L29.4767 53.8889H31.602V50.2825L32.6204 46.5882L32.487 47.072Z" stroke="#306CFE" stroke-width="3" stroke-linecap="round" stroke-linejoin="round"/>
<path d="M46.2378 23.2281L53.3616 21.2966" stroke="#306CFE" stroke-width="3" stroke-linecap="round"/>
<path d="M43.1595 16.5727L48.6563 12.5538" stroke="#306CFE" stroke-width="3" stroke-linecap="round"/>
<path d="M36.1149 10.0978L40.0904 4.87843" stroke="#306CFE" stroke-width="3" stroke-linecap="round"/>
<path d="M27.9006 8.26162V2" stroke="#306CFE" stroke-width="3" stroke-linecap="round"/>
<path d="M19.556 9.95008L16.0613 4.67432" stroke="#306CFE" stroke-width="3" stroke-linecap="round"/>
<path d="M12.4657 16.3968L7.71655 12.3779" stroke="#306CFE" stroke-width="3" stroke-linecap="round"/>
<path d="M9.12378 23.2281L2 21.2966" stroke="#306CFE" stroke-width="3" stroke-linecap="round"/>
<path d="M44.495 43.525V45.655H47.93V47.635H44.495V49.945H48.38V52H41.93V41.47H48.38V43.525H44.495ZM60.2152 52H57.6502L53.3602 45.505V52H50.7952V41.47H53.3602L57.6502 47.995V41.47H60.2152V52ZM69.8145 44.8C69.6245 44.45 69.3495 44.185 68.9895 44.005C68.6395 43.815 68.2245 43.72 67.7445 43.72C66.9145 43.72 66.2495 43.995 65.7495 44.545C65.2495 45.085 64.9995 45.81 64.9995 46.72C64.9995 47.69 65.2595 48.45 65.7795 49C66.3095 49.54 67.0345 49.81 67.9545 49.81C68.5845 49.81 69.1145 49.65 69.5445 49.33C69.9845 49.01 70.3045 48.55 70.5045 47.95H67.2495V46.06H72.8295V48.445C72.6395 49.085 72.3145 49.68 71.8545 50.23C71.4045 50.78 70.8295 51.225 70.1295 51.565C69.4295 51.905 68.6395 52.075 67.7595 52.075C66.7195 52.075 65.7895 51.85 64.9695 51.4C64.1595 50.94 63.5245 50.305 63.0645 49.495C62.6145 48.685 62.3895 47.76 62.3895 46.72C62.3895 45.68 62.6145 44.755 63.0645 43.945C63.5245 43.125 64.1595 42.49 64.9695 42.04C65.7795 41.58 66.7045 41.35 67.7445 41.35C69.0045 41.35 70.0645 41.655 70.9245 42.265C71.7945 42.875 72.3695 43.72 72.6495 44.8H69.8145ZM78.8103 52.105C78.0403 52.105 77.3503 51.98 76.7403 51.73C76.1303 51.48 75.6403 51.11 75.2703 50.62C74.9103 50.13 74.7203 49.54 74.7003 48.85H77.4303C77.4703 49.24 77.6053 49.54 77.8353 49.75C78.0653 49.95 78.3653 50.05 78.7353 50.05C79.1153 50.05 79.4153 49.965 79.6353 49.795C79.8553 49.615 79.9653 49.37 79.9653 49.06C79.9653 48.8 79.8753 48.585 79.6953 48.415C79.5253 48.245 79.3103 48.105 79.0503 47.995C78.8003 47.885 78.4403 47.76 77.9703 47.62C77.2903 47.41 76.7353 47.2 76.3053 46.99C75.8753 46.78 75.5053 46.47 75.1953 46.06C74.8853 45.65 74.7303 45.115 74.7303 44.455C74.7303 43.475 75.0853 42.71 75.7953 42.16C76.5053 41.6 77.4303 41.32 78.5703 41.32C79.7303 41.32 80.6653 41.6 81.3753 42.16C82.0853 42.71 82.4653 43.48 82.5153 44.47H79.7403C79.7203 44.13 79.5953 43.865 79.3653 43.675C79.1353 43.475 78.8403 43.375 78.4803 43.375C78.1703 43.375 77.9203 43.46 77.7303 43.63C77.5403 43.79 77.4453 44.025 77.4453 44.335C77.4453 44.675 77.6053 44.94 77.9253 45.13C78.2453 45.32 78.7453 45.525 79.4253 45.745C80.1053 45.975 80.6553 46.195 81.0753 46.405C81.5053 46.615 81.8753 46.92 82.1853 47.32C82.4953 47.72 82.6503 48.235 82.6503 48.865C82.6503 49.465 82.4953 50.01 82.1853 50.5C81.8853 50.99 81.4453 51.38 80.8653 51.67C80.2853 51.96 79.6003 52.105 78.8103 52.105ZM93.0038 44.86C93.0038 45.47 92.8638 46.03 92.5838 46.54C92.3038 47.04 91.8738 47.445 91.2938 47.755C90.7138 48.065 89.9938 48.22 89.1338 48.22H87.5438V52H84.9788V41.47H89.1338C89.9738 41.47 90.6838 41.615 91.2638 41.905C91.8438 42.195 92.2788 42.595 92.5688 43.105C92.8588 43.615 93.0038 44.2 93.0038 44.86ZM88.9388 46.18C89.4288 46.18 89.7938 46.065 90.0338 45.835C90.2738 45.605 90.3938 45.28 90.3938 44.86C90.3938 44.44 90.2738 44.115 90.0338 43.885C89.7938 43.655 89.4288 43.54 88.9388 43.54H87.5438V46.18H88.9388ZM97.6542 41.47V52H95.0892V41.47H97.6542ZM105.633 52L103.443 48.025H102.828V52H100.263V41.47H104.568C105.398 41.47 106.103 41.615 106.683 41.905C107.273 42.195 107.713 42.595 108.003 43.105C108.293 43.605 108.438 44.165 108.438 44.785C108.438 45.485 108.238 46.11 107.838 46.66C107.448 47.21 106.868 47.6 106.098 47.83L108.528 52H105.633ZM102.828 46.21H104.418C104.888 46.21 105.238 46.095 105.468 45.865C105.708 45.635 105.828 45.31 105.828 44.89C105.828 44.49 105.708 44.175 105.468 43.945C105.238 43.715 104.888 43.6 104.418 43.6H102.828V46.21ZM113.363 43.525V45.655H116.798V47.635H113.363V49.945H117.248V52H110.798V41.47H117.248V43.525H113.363Z" fill="#306CFE"/>
</svg>
