<svg width="26" height="26" viewBox="0 0 26 26" fill="none" xmlns="http://www.w3.org/2000/svg">
<path fill-rule="evenodd" clip-rule="evenodd" d="M17.6668 9.49992C17.6668 10.7376 17.1752 11.9246 16.3 12.7998C15.4248 13.6749 14.2378 14.1666 13.0002 14.1666C11.7625 14.1666 10.5755 13.6749 9.70033 12.7998C8.82516 11.9246 8.3335 10.7376 8.3335 9.49992C8.3335 8.26224 8.82516 7.07526 9.70033 6.20009C10.5755 5.32492 11.7625 4.83325 13.0002 4.83325C14.2378 4.83325 15.4248 5.32492 16.3 6.20009C17.1752 7.07526 17.6668 8.26224 17.6668 9.49992ZM15.3335 9.49992C15.3335 10.1188 15.0877 10.7122 14.6501 11.1498C14.2125 11.5874 13.619 11.8333 13.0002 11.8333C12.3813 11.8333 11.7878 11.5874 11.3502 11.1498C10.9127 10.7122 10.6668 10.1188 10.6668 9.49992C10.6668 8.88108 10.9127 8.28759 11.3502 7.85C11.7878 7.41242 12.3813 7.16659 13.0002 7.16659C13.619 7.16659 14.2125 7.41242 14.6501 7.85C15.0877 8.28759 15.3335 8.88108 15.3335 9.49992Z" fill="#306CFE"/>
<path fill-rule="evenodd" clip-rule="evenodd" d="M13.0001 0.166626C5.91258 0.166626 0.166748 5.91246 0.166748 13C0.166748 20.0875 5.91258 25.8333 13.0001 25.8333C20.0876 25.8333 25.8334 20.0875 25.8334 13C25.8334 5.91246 20.0876 0.166626 13.0001 0.166626ZM2.50008 13C2.50008 15.4383 3.33191 17.683 4.72608 19.4656C5.70543 18.1801 6.96859 17.1383 8.41699 16.4215C9.86539 15.7047 11.4598 15.3322 13.0759 15.3333C14.6712 15.3314 16.2458 15.6939 17.6797 16.3931C19.1136 17.0922 20.3689 18.1096 21.3499 19.3676C22.3608 18.0418 23.0414 16.4944 23.3355 14.8533C23.6295 13.2122 23.5286 11.5247 23.041 9.93044C22.5534 8.33613 21.6932 6.88085 20.5315 5.685C19.3698 4.48916 17.94 3.58713 16.3605 3.05355C14.781 2.51998 13.0971 2.37019 11.4483 2.61659C9.79936 2.863 8.23284 3.4985 6.87831 4.47052C5.52379 5.44254 4.42019 6.72314 3.65885 8.20635C2.8975 9.68957 2.50029 11.3328 2.50008 13ZM13.0001 23.5C10.5896 23.5039 8.25191 22.6746 6.38275 21.1526C7.13503 20.0753 8.13647 19.1958 9.30184 18.5888C10.4672 17.9819 11.762 17.6655 13.0759 17.6666C14.3735 17.6655 15.6525 17.974 16.8069 18.5665C17.9613 19.159 18.9576 20.0184 19.7131 21.0733C17.8295 22.6448 15.4532 23.5038 13.0001 23.5Z" fill="#306CFE"/>
</svg>
