<svg xmlns="http://www.w3.org/2000/svg" width="28" height="28" viewBox="0 0 28 28" fill="none">
  <path fill-rule="evenodd" clip-rule="evenodd" d="M14 5.83333C9.54855 5.83333 5.62978 9.09464 3.34797 11.4954C1.99515 12.9188 1.99515 15.0814 3.34797 16.5048C5.62978 18.9055 9.54855 22.1667 14 22.1667C18.4515 22.1667 22.3703 18.9055 24.6521 16.5048C26.0049 15.0814 26.0049 12.9188 24.6521 11.4954C22.3703 9.09464 18.4515 5.83333 14 5.83333ZM14 18.6667C12.067 18.6667 10.5 17.0997 10.5 15.1667C10.5 13.2336 12.067 11.6667 14 11.6667C15.933 11.6667 17.5 13.2336 17.5 15.1667C17.5 17.0997 15.933 18.6667 14 18.6667Z" fill="#000000"/>
  <circle cx="14" cy="15.1667" r="2.83333" fill="#FFFFFF"/>
</svg>