<svg width="21" height="22" viewBox="0 0 21 22" fill="none" xmlns="http://www.w3.org/2000/svg">
<path d="M9 9C11.2091 9 13 7.20914 13 5C13 2.79086 11.2091 1 9 1C6.79086 1 5 2.79086 5 5C5 7.20914 6.79086 9 9 9Z" stroke="currentColor" stroke-width="1.5"/>
<path d="M17 16.5C17 18.985 17 21 9 21C1 21 1 18.985 1 16.5C1 14.015 4.582 12 9 12C13.418 12 17 14.015 17 16.5Z" stroke="currentColor" stroke-width="1.5"/>
<path d="M18 1C18 1 20 2.2 20 5C20 7.8 18 9 18 9M16 3C16 3 17 3.6 17 5C17 6.4 16 7 16 7" stroke="currentColor" stroke-width="1.5" stroke-linecap="round"/>
</svg>
